<mxfile host="app.diagrams.net" modified="2024-04-15T15:01:05.684Z" agent="Mozilla/5.0 (Windows NT 10.0; Win64; x64) AppleWebKit/537.36 (KHTML, like Gecko) Chrome/120.0.0.0 YaBrowser/24.1.0.0 Safari/537.36" etag="lhOFDfo5NaNEHpQxu7cN" version="24.1.0" type="device">
  <diagram id="C5RBs43oDa-KdzZeNtuy" name="Page-1">
    <mxGraphModel dx="1185" dy="653" grid="1" gridSize="10" guides="1" tooltips="1" connect="1" arrows="1" fold="1" page="1" pageScale="1" pageWidth="827" pageHeight="1169" math="0" shadow="0">
      <root>
        <mxCell id="WIyWlLk6GJQsqaUBKTNV-0" />
        <mxCell id="WIyWlLk6GJQsqaUBKTNV-1" parent="WIyWlLk6GJQsqaUBKTNV-0" />
        <mxCell id="gT7HBxrlQcCZhTYaobef-5" style="edgeStyle=orthogonalEdgeStyle;rounded=0;orthogonalLoop=1;jettySize=auto;html=1;entryX=0.5;entryY=0;entryDx=0;entryDy=0;" edge="1" parent="WIyWlLk6GJQsqaUBKTNV-1" source="gT7HBxrlQcCZhTYaobef-0" target="gT7HBxrlQcCZhTYaobef-2">
          <mxGeometry relative="1" as="geometry" />
        </mxCell>
        <mxCell id="gT7HBxrlQcCZhTYaobef-0" value="начало" style="ellipse;whiteSpace=wrap;html=1;" vertex="1" parent="WIyWlLk6GJQsqaUBKTNV-1">
          <mxGeometry x="200" y="20" width="200" height="80" as="geometry" />
        </mxCell>
        <mxCell id="gT7HBxrlQcCZhTYaobef-19" style="edgeStyle=orthogonalEdgeStyle;rounded=0;orthogonalLoop=1;jettySize=auto;html=1;entryX=0.5;entryY=0;entryDx=0;entryDy=0;" edge="1" parent="WIyWlLk6GJQsqaUBKTNV-1" source="gT7HBxrlQcCZhTYaobef-2" target="gT7HBxrlQcCZhTYaobef-9">
          <mxGeometry relative="1" as="geometry" />
        </mxCell>
        <mxCell id="gT7HBxrlQcCZhTYaobef-2" value="ввод функции(f),&lt;br&gt;границы(a,b),&lt;br&gt;условие коши(y0),&lt;div&gt;шаг разбиения(step)&lt;/div&gt;" style="shape=parallelogram;perimeter=parallelogramPerimeter;whiteSpace=wrap;html=1;fixedSize=1;" vertex="1" parent="WIyWlLk6GJQsqaUBKTNV-1">
          <mxGeometry x="200" y="110" width="200" height="60" as="geometry" />
        </mxCell>
        <mxCell id="gT7HBxrlQcCZhTYaobef-21" style="edgeStyle=orthogonalEdgeStyle;rounded=0;orthogonalLoop=1;jettySize=auto;html=1;entryX=0.5;entryY=0;entryDx=0;entryDy=0;" edge="1" parent="WIyWlLk6GJQsqaUBKTNV-1" source="gT7HBxrlQcCZhTYaobef-7" target="gT7HBxrlQcCZhTYaobef-10">
          <mxGeometry relative="1" as="geometry" />
        </mxCell>
        <mxCell id="gT7HBxrlQcCZhTYaobef-7" value="y=y0+step*f(x+step/2, y0+(step/2)*f(x,y0))" style="rounded=0;whiteSpace=wrap;html=1;" vertex="1" parent="WIyWlLk6GJQsqaUBKTNV-1">
          <mxGeometry x="200" y="250" width="200" height="60" as="geometry" />
        </mxCell>
        <mxCell id="gT7HBxrlQcCZhTYaobef-20" style="edgeStyle=orthogonalEdgeStyle;rounded=0;orthogonalLoop=1;jettySize=auto;html=1;entryX=0.5;entryY=0;entryDx=0;entryDy=0;" edge="1" parent="WIyWlLk6GJQsqaUBKTNV-1" source="gT7HBxrlQcCZhTYaobef-9" target="gT7HBxrlQcCZhTYaobef-7">
          <mxGeometry relative="1" as="geometry" />
        </mxCell>
        <mxCell id="gT7HBxrlQcCZhTYaobef-9" value="x = a" style="rounded=0;whiteSpace=wrap;html=1;" vertex="1" parent="WIyWlLk6GJQsqaUBKTNV-1">
          <mxGeometry x="200" y="180" width="200" height="60" as="geometry" />
        </mxCell>
        <mxCell id="gT7HBxrlQcCZhTYaobef-22" style="edgeStyle=orthogonalEdgeStyle;rounded=0;orthogonalLoop=1;jettySize=auto;html=1;entryX=0.5;entryY=0;entryDx=0;entryDy=0;" edge="1" parent="WIyWlLk6GJQsqaUBKTNV-1" source="gT7HBxrlQcCZhTYaobef-10" target="gT7HBxrlQcCZhTYaobef-18">
          <mxGeometry relative="1" as="geometry" />
        </mxCell>
        <mxCell id="gT7HBxrlQcCZhTYaobef-10" value="x = x+step" style="rounded=0;whiteSpace=wrap;html=1;" vertex="1" parent="WIyWlLk6GJQsqaUBKTNV-1">
          <mxGeometry x="200" y="320" width="200" height="60" as="geometry" />
        </mxCell>
        <mxCell id="gT7HBxrlQcCZhTYaobef-25" style="edgeStyle=orthogonalEdgeStyle;rounded=0;orthogonalLoop=1;jettySize=auto;html=1;entryX=0.5;entryY=0;entryDx=0;entryDy=0;" edge="1" parent="WIyWlLk6GJQsqaUBKTNV-1" source="gT7HBxrlQcCZhTYaobef-11" target="gT7HBxrlQcCZhTYaobef-17">
          <mxGeometry relative="1" as="geometry" />
        </mxCell>
        <mxCell id="gT7HBxrlQcCZhTYaobef-26" style="edgeStyle=orthogonalEdgeStyle;rounded=0;orthogonalLoop=1;jettySize=auto;html=1;entryX=0;entryY=0.5;entryDx=0;entryDy=0;" edge="1" parent="WIyWlLk6GJQsqaUBKTNV-1" source="gT7HBxrlQcCZhTYaobef-11" target="gT7HBxrlQcCZhTYaobef-7">
          <mxGeometry relative="1" as="geometry">
            <Array as="points">
              <mxPoint x="180" y="500" />
              <mxPoint x="180" y="280" />
            </Array>
          </mxGeometry>
        </mxCell>
        <mxCell id="gT7HBxrlQcCZhTYaobef-11" value="x = b" style="rhombus;whiteSpace=wrap;html=1;" vertex="1" parent="WIyWlLk6GJQsqaUBKTNV-1">
          <mxGeometry x="200" y="460" width="200" height="80" as="geometry" />
        </mxCell>
        <mxCell id="gT7HBxrlQcCZhTYaobef-17" value="вывод y" style="shape=parallelogram;perimeter=parallelogramPerimeter;whiteSpace=wrap;html=1;fixedSize=1;" vertex="1" parent="WIyWlLk6GJQsqaUBKTNV-1">
          <mxGeometry x="200" y="554.5" width="200" height="60" as="geometry" />
        </mxCell>
        <mxCell id="gT7HBxrlQcCZhTYaobef-24" style="edgeStyle=orthogonalEdgeStyle;rounded=0;orthogonalLoop=1;jettySize=auto;html=1;entryX=0.5;entryY=0;entryDx=0;entryDy=0;" edge="1" parent="WIyWlLk6GJQsqaUBKTNV-1" source="gT7HBxrlQcCZhTYaobef-18" target="gT7HBxrlQcCZhTYaobef-11">
          <mxGeometry relative="1" as="geometry" />
        </mxCell>
        <mxCell id="gT7HBxrlQcCZhTYaobef-18" value="y0 = y" style="rounded=0;whiteSpace=wrap;html=1;" vertex="1" parent="WIyWlLk6GJQsqaUBKTNV-1">
          <mxGeometry x="200" y="390" width="200" height="60" as="geometry" />
        </mxCell>
      </root>
    </mxGraphModel>
  </diagram>
</mxfile>
